<svg width="24" height="16" viewBox="0 0 24 16" fill="none" xmlns="http://www.w3.org/2000/svg">
<path d="M2.59478 9.17188V9.1775C2.56321 9.29659 2.50847 9.40829 2.43369 9.5062C2.35892 9.60412 2.26557 9.68634 2.159 9.74816C2.05243 9.80998 1.93472 9.85018 1.81259 9.86648C1.69047 9.88277 1.56634 9.87484 1.44728 9.84312C0.639159 9.62937 0.781659 8.6975 0.781659 8.6975L0.813534 8.58125C0.813534 8.58125 0.862284 8.42375 0.901659 8.30937C1.38282 6.96029 2.09116 5.70342 2.99603 4.59313C4.68166 2.54188 7.51103 0.5 11.9998 0.5C16.4904 0.5 19.3198 2.54188 21.0017 4.59313C21.9065 5.70342 22.6149 6.96029 23.096 8.30937C23.1365 8.42529 23.174 8.5422 23.2085 8.66L23.2142 8.68437L23.2179 8.69188V8.69563C23.2774 8.93425 23.2407 9.18669 23.1158 9.39853C22.9909 9.61036 22.7877 9.76464 22.5501 9.8281C22.3125 9.89155 22.0595 9.85911 21.8456 9.73776C21.6317 9.61641 21.4741 9.41587 21.4067 9.17937L21.4048 9.17188L21.3898 9.125C21.2834 8.79315 21.1582 8.46762 21.0148 8.15C20.6325 7.30028 20.1409 6.50416 19.5523 5.78187C18.1592 4.085 15.8323 2.375 11.9998 2.375C8.16728 2.375 5.83853 4.085 4.44728 5.78187C3.68325 6.72029 3.08411 7.78162 2.67541 8.92063C2.65224 8.98833 2.63037 9.05647 2.60978 9.125L2.59478 9.17188Z" fill="#828282"/>
<path d="M7.3125 10.8125C7.3125 9.5693 7.80636 8.37701 8.68544 7.49794C9.56451 6.61886 10.7568 6.125 12 6.125C13.2432 6.125 14.4355 6.61886 15.3146 7.49794C16.1936 8.37701 16.6875 9.5693 16.6875 10.8125C16.6875 12.0557 16.1936 13.248 15.3146 14.1271C14.4355 15.0061 13.2432 15.5 12 15.5C10.7568 15.5 9.56451 15.0061 8.68544 14.1271C7.80636 13.248 7.3125 12.0557 7.3125 10.8125Z" fill="#828282"/>
</svg>
